<mxfile host="65bd71144e">
    <diagram id="tkuo6LbnZ8nWSdXSh3v5" name="Page-1">
        <mxGraphModel dx="3343" dy="2226" grid="0" gridSize="10" guides="1" tooltips="1" connect="1" arrows="1" fold="1" page="1" pageScale="1" pageWidth="1600" pageHeight="900" background="#FFFFFF" math="0" shadow="0">
            <root>
                <mxCell id="0"/>
                <mxCell id="1" parent="0"/>
                <mxCell id="19" value="&lt;font style=&quot;font-size: 34px;&quot; color=&quot;#000000&quot;&gt;Пользователь&lt;/font&gt;" style="shape=umlActor;verticalLabelPosition=bottom;verticalAlign=top;html=1;outlineConnect=0;strokeColor=#121212;fillColor=none;strokeWidth=6;" vertex="1" parent="1">
                    <mxGeometry x="180" y="296" width="123.43" height="240" as="geometry"/>
                </mxCell>
                <mxCell id="20" value="" style="rounded=0;whiteSpace=wrap;html=1;fillColor=none;strokeWidth=3;strokeColor=#0D0D0D;" vertex="1" parent="1">
                    <mxGeometry x="360" y="72" width="1010" height="725" as="geometry"/>
                </mxCell>
                <mxCell id="21" value="Настройка приложения" style="ellipse;whiteSpace=wrap;html=1;strokeColor=#121212;strokeWidth=3;fontFamily=Lucida Console;fontSize=34;fontColor=#000000;fillColor=none;" vertex="1" parent="1">
                    <mxGeometry x="450" y="146" width="280" height="110" as="geometry"/>
                </mxCell>
                <mxCell id="22" value="Ведение игры против бота" style="ellipse;whiteSpace=wrap;html=1;strokeColor=#121212;strokeWidth=3;fontFamily=Lucida Console;fontSize=34;fontColor=#000000;fillColor=none;" vertex="1" parent="1">
                    <mxGeometry x="440" y="276" width="320" height="130" as="geometry"/>
                </mxCell>
                <mxCell id="23" value="Ведение игры без бота" style="ellipse;whiteSpace=wrap;html=1;strokeColor=#121212;strokeWidth=3;fontFamily=Lucida Console;fontSize=34;fontColor=#000000;fillColor=none;" vertex="1" parent="1">
                    <mxGeometry x="430" y="436" width="320" height="130" as="geometry"/>
                </mxCell>
                <mxCell id="24" value="Ознакомнениние с названием позиции" style="ellipse;whiteSpace=wrap;html=1;strokeColor=#121212;strokeWidth=3;fontFamily=Lucida Console;fontSize=34;fontColor=#000000;fillColor=none;" vertex="1" parent="1">
                    <mxGeometry x="403" y="580" width="420" height="130" as="geometry"/>
                </mxCell>
                <mxCell id="25" value="Выбор цвета фигур" style="ellipse;whiteSpace=wrap;html=1;strokeColor=#121212;strokeWidth=3;fontFamily=Lucida Console;fontSize=34;fontColor=#000000;fillColor=none;" vertex="1" parent="1">
                    <mxGeometry x="936" y="184" width="295.38" height="120" as="geometry"/>
                </mxCell>
                <mxCell id="26" value="Совершение ходов" style="ellipse;whiteSpace=wrap;html=1;strokeColor=#121212;strokeWidth=3;fontFamily=Lucida Console;fontSize=34;fontColor=#000000;fillColor=none;" vertex="1" parent="1">
                    <mxGeometry x="933" y="454" width="295.38" height="120" as="geometry"/>
                </mxCell>
                <mxCell id="27" value="" style="endArrow=classic;html=1;fontFamily=Lucida Console;fontSize=34;fontColor=#000000;" edge="1" parent="1">
                    <mxGeometry width="50" height="50" relative="1" as="geometry">
                        <mxPoint x="550" y="326" as="sourcePoint"/>
                        <mxPoint x="600" y="276" as="targetPoint"/>
                    </mxGeometry>
                </mxCell>
                <mxCell id="28" value="" style="endArrow=classic;html=1;fontFamily=Lucida Console;fontSize=34;fontColor=#000000;strokeColor=#0D0D0D;entryX=0;entryY=0.5;entryDx=0;entryDy=0;strokeWidth=4;" edge="1" parent="1" target="21">
                    <mxGeometry width="50" height="50" relative="1" as="geometry">
                        <mxPoint x="317" y="371" as="sourcePoint"/>
                        <mxPoint x="222" y="195" as="targetPoint"/>
                    </mxGeometry>
                </mxCell>
                <mxCell id="29" value="" style="endArrow=classic;html=1;fontFamily=Lucida Console;fontSize=34;fontColor=#000000;strokeColor=#0D0D0D;entryX=0;entryY=0.5;entryDx=0;entryDy=0;strokeWidth=4;" edge="1" parent="1" target="22">
                    <mxGeometry width="50" height="50" relative="1" as="geometry">
                        <mxPoint x="323" y="392" as="sourcePoint"/>
                        <mxPoint x="459.99999999999727" y="211" as="targetPoint"/>
                    </mxGeometry>
                </mxCell>
                <mxCell id="30" value="" style="endArrow=classic;html=1;fontFamily=Lucida Console;fontSize=34;fontColor=#000000;strokeColor=#0D0D0D;entryX=0;entryY=0.5;entryDx=0;entryDy=0;strokeWidth=4;" edge="1" parent="1" target="23">
                    <mxGeometry width="50" height="50" relative="1" as="geometry">
                        <mxPoint x="322" y="437" as="sourcePoint"/>
                        <mxPoint x="449.99999999999727" y="351" as="targetPoint"/>
                    </mxGeometry>
                </mxCell>
                <mxCell id="31" value="" style="endArrow=classic;html=1;fontFamily=Lucida Console;fontSize=34;fontColor=#000000;strokeColor=#0D0D0D;entryX=0;entryY=0.5;entryDx=0;entryDy=0;strokeWidth=4;" edge="1" parent="1" target="24">
                    <mxGeometry width="50" height="50" relative="1" as="geometry">
                        <mxPoint x="308" y="456" as="sourcePoint"/>
                        <mxPoint x="440.00000000000045" y="511" as="targetPoint"/>
                    </mxGeometry>
                </mxCell>
                <mxCell id="32" value="" style="endArrow=classic;html=1;fontFamily=Lucida Console;fontSize=34;fontColor=#000000;strokeColor=#0D0D0D;entryX=0;entryY=0.5;entryDx=0;entryDy=0;strokeWidth=4;dashed=1;" edge="1" parent="1" target="25">
                    <mxGeometry width="50" height="50" relative="1" as="geometry">
                        <mxPoint x="763" y="337" as="sourcePoint"/>
                        <mxPoint x="895.9999999999973" y="167" as="targetPoint"/>
                    </mxGeometry>
                </mxCell>
                <mxCell id="33" value="" style="endArrow=classic;html=1;fontFamily=Lucida Console;fontSize=34;fontColor=#000000;strokeColor=#0D0D0D;strokeWidth=4;dashed=1;" edge="1" parent="1" target="26">
                    <mxGeometry width="50" height="50" relative="1" as="geometry">
                        <mxPoint x="762" y="336" as="sourcePoint"/>
                        <mxPoint x="916.0000000000009" y="270" as="targetPoint"/>
                    </mxGeometry>
                </mxCell>
                <mxCell id="34" value="" style="endArrow=classic;html=1;fontFamily=Lucida Console;fontSize=34;fontColor=#000000;strokeColor=#0D0D0D;entryX=-0.008;entryY=0.442;entryDx=0;entryDy=0;strokeWidth=4;dashed=1;entryPerimeter=0;" edge="1" parent="1" target="26">
                    <mxGeometry width="50" height="50" relative="1" as="geometry">
                        <mxPoint x="745" y="503" as="sourcePoint"/>
                        <mxPoint x="903.9999999999968" y="507" as="targetPoint"/>
                    </mxGeometry>
                </mxCell>
                <mxCell id="35" value="" style="endArrow=classic;html=1;fontFamily=Lucida Console;fontSize=34;fontColor=#000000;strokeColor=#0D0D0D;strokeWidth=4;dashed=1;entryX=0.185;entryY=0.91;entryDx=0;entryDy=0;entryPerimeter=0;" edge="1" parent="1" target="25">
                    <mxGeometry width="50" height="50" relative="1" as="geometry">
                        <mxPoint x="755" y="513" as="sourcePoint"/>
                        <mxPoint x="913.9999999999968" y="517" as="targetPoint"/>
                    </mxGeometry>
                </mxCell>
            </root>
        </mxGraphModel>
    </diagram>
</mxfile>